PathFileType	4	(X/Y/Z)	s11c0103.trc
DataRate	CameraRate	NumFrames	NumMarkers	Units	OrigDataRate	OrigDataStartFrame	OrigNumFrames
200	200	7	48	mm	200	1000	2000
Frame#	Time	racr			lacr			c7			jug			rlel			rdr			llel			ldr			s2			lic			ric			lasi			rasi			rpsi			lpsi			rgt			lgt			rth1			rth2			rth3			rth4			rlfc			rmfc			rsh1			rsh2			rsh3			rsh4			rlmal			rcal			rtoe			rmt5			lth1			lth2			lth4			lth3			llfc			lmfc			llmal			lcal			lmt5			lsh1			lsh2			lsh3			lsh4			ltoe			SBIKE			LBIKE			RBIKE			
		X1	Y1	Z1	X2	Y2	Z2	X3	Y3	Z3	X4	Y4	Z4	X5	Y5	Z5	X6	Y6	Z6	X7	Y7	Z7	X8	Y8	Z8	X9	Y9	Z9	X10	Y10	Z10	X11	Y11	Z11	X12	Y12	Z12	X13	Y13	Z13	X14	Y14	Z14	X15	Y15	Z15	X16	Y16	Z16	X17	Y17	Z17	X18	Y18	Z18	X19	Y19	Z19	X20	Y20	Z20	X21	Y21	Z21	X22	Y22	Z22	X23	Y23	Z23	X24	Y24	Z24	X25	Y25	Z25	X26	Y26	Z26	X27	Y27	Z27	X28	Y28	Z28	X29	Y29	Z29	X30	Y30	Z30	X31	Y31	Z31	X32	Y32	Z32	X33	Y33	Z33	X34	Y34	Z34	X35	Y35	Z35	X36	Y36	Z36	X37	Y37	Z37	X38	Y38	Z38	X39	Y39	Z39	X40	Y40	Z40	X41	Y41	Z41	X42	Y42	Z42	X43	Y43	Z43	X44	Y44	Z44	X45	Y45	Z45	X46	Y46	Z46	X47	Y47	Z47	X48	Y48	Z48	
1000	5.0000	475.046274	1401.490431	-62.208145	511.389480	1382.895865	-351.925943	424.150367	1483.805374	-209.762020	456.964521	1303.066774	-206.322024	580.286772	1159.517100	36.908429	776.315372	943.653742	-65.828870	631.892448	1201.634306	-569.477511	786.953355	924.539429	-471.806921	-109.628270	1201.937366	-292.130622	126.368852	1224.678583	-465.246445	63.667111	1250.559858	-66.843031	158.250487	1163.110194	-428.863241	101.391531	1195.203888	-107.761457	-88.399397	1284.701639	-248.100045	-69.942995	1273.370532	-333.645353	56.087287	1131.824661	-42.127341	29.708813	1077.230829	-475.149838	194.088942	1092.672820	-37.360123	283.339465	1098.077055	-41.626564	361.755010	1058.869837	-47.984170	289.841860	1132.229990	-55.235907	469.883739	1033.653856	-59.268807	488.183006	1017.564329	-195.237710	419.952116	888.594919	-58.097359	402.333665	803.925903	-77.289535	345.316575	738.423440	-82.864193	429.044960	795.941526	-105.577636	268.609120	615.688437	-100.225208	208.121915	631.260036	-149.808470	435.507058	455.681322	-154.599953	363.925664	469.170429	-84.480306	105.641964	953.294538	-492.954780	162.262056	889.554945	-488.765673	195.752324	905.125910	-484.675959	180.027838	801.692276	-478.844604	234.712833	676.736519	-454.174496	256.218845	670.605727	-327.401379	56.717380	282.510984	-422.214617	-2.099783	248.553700	-382.257135	187.780861	165.825236	-453.694077	181.981286	564.396780	-470.747549	171.131240	480.649315	-453.459100	118.673537	410.223371	-446.017491	201.568346	472.509265	-431.855119	287.893946	175.024292	-388.443626	-215.924006	951.569717	-257.290756	-18.135934	81.182907	-460.841552	-18.102840	81.357390	-62.090250	
1001	5.0050	475.197426	1399.517740	-62.663542	512.645640	1379.127345	-348.935076	424.723157	1482.175167	-208.687998	455.437855	1300.910449	-204.252685	579.928923	1159.045026	36.558021	776.335315	943.402871	-65.679104	639.131924	1205.134655	-566.535378	786.607193	923.606719	-469.571341	-110.120654	1204.692446	-292.178276	125.992390	1225.789995	-465.839750	62.917346	1252.426501	-66.858623	157.641020	1163.917891	-429.560396	100.562501	1196.314658	-107.609744	-88.409648	1287.505670	-247.804562	-69.757784	1275.679720	-334.129594	54.743214	1133.061815	-42.375110	28.652095	1078.511174	-475.883569	192.446384	1092.441866	-38.284499	281.692331	1096.643046	-42.770998	359.661243	1056.444715	-49.066884	288.645164	1130.729190	-56.283058	468.712264	1029.723583	-60.392625	485.627348	1013.880534	-196.459181	420.111469	883.918919	-58.278653	403.474722	798.813835	-77.103300	347.300538	732.657323	-82.248194	430.121717	791.091317	-105.506178	272.574522	608.952329	-98.895574	210.552107	621.876519	-148.241663	445.185365	456.046948	-154.241563	372.924080	465.742825	-83.869654	106.371067	955.264491	-493.679337	164.267590	892.741827	-489.709960	197.427838	908.889240	-485.885503	183.870239	805.161004	-480.409997	239.447332	680.611393	-455.460604	262.194048	674.608567	-328.865869	51.493001	291.477766	-422.175842	-7.791365	259.337874	-382.237393	179.206086	170.164635	-453.403448	183.861857	569.613834	-471.771875	170.994861	486.230174	-454.156516	116.783516	417.115617	-446.547512	201.214734	477.498184	-432.687016	279.615051	175.730660	-388.462825	-215.907167	951.544844	-257.282389	-18.129950	81.181138	-460.832754	-18.104354	81.377039	-62.095774	
1002	5.0100	475.451051	1397.332709	-63.066859	513.890551	1375.182277	-345.885078	425.477003	1480.323351	-207.662509	453.916729	1298.684294	-202.322197	579.485221	1158.245328	36.211133	776.232253	943.077890	-65.601827	645.914079	1208.064483	-563.274734	787.357644	923.621801	-469.552577	-110.610356	1207.305272	-292.134574	125.164323	1227.020378	-466.138160	62.550940	1253.875284	-67.083746	156.897111	1164.672137	-430.527424	99.863631	1196.847405	-107.326737	-88.361804	1290.235815	-247.415784	-70.114051	1278.180307	-333.930599	53.373399	1133.884708	-42.781495	27.632456	1079.803164	-476.638097	190.856809	1091.641348	-39.375446	280.124111	1094.530012	-43.935315	357.538453	1053.285387	-50.067930	287.573424	1128.573453	-57.372630	467.098827	1024.733412	-61.026074	482.970163	1008.970738	-198.191295	420.002485	878.126353	-58.268374	404.412291	792.680633	-76.835780	349.034389	725.733756	-81.506753	430.963242	785.192060	-105.324938	275.938047	600.622162	-97.961119	212.730386	611.440513	-146.657229	454.400074	455.862039	-153.959819	381.890529	461.911004	-83.236690	107.344975	957.353741	-494.274344	166.533107	896.047536	-490.571142	199.338265	912.836739	-486.865345	188.077194	808.831567	-481.926259	244.734928	684.780691	-456.475365	268.483193	678.856833	-330.055111	46.906339	300.962368	-422.317909	-13.014715	270.614758	-382.272255	170.973069	175.253120	-453.095262	186.084733	575.093560	-472.665814	171.227249	492.133907	-454.768967	115.398206	424.314172	-447.128044	201.265899	482.741435	-433.330652	271.481943	177.022730	-388.286725	-215.805611	951.451610	-257.651502	-18.128335	81.221189	-460.842249	-18.086678	81.372925	-62.109125	
1003	5.0150	475.242260	1394.588391	-63.973242	515.127172	1371.133875	-342.784396	426.386401	1478.217814	-206.619440	452.466305	1296.548132	-200.589556	579.037054	1156.979953	36.075561	775.995275	942.614512	-65.584495	652.228166	1210.392699	-559.651340	788.134986	923.479527	-469.158801	-111.078168	1209.682131	-291.989598	124.277182	1228.302662	-466.567407	62.290969	1254.921969	-67.342737	156.090722	1165.169369	-431.784129	99.370755	1196.968096	-107.302531	-88.168464	1292.782873	-246.953012	-70.493036	1280.543831	-333.759767	52.270682	1134.359669	-43.368178	26.665526	1081.049519	-477.387266	189.432523	1090.266221	-40.404908	278.733497	1091.841403	-45.069105	355.539004	1049.442709	-51.069349	286.615115	1125.842336	-58.513882	465.715857	1018.877196	-62.400774	480.213087	1002.609728	-198.684553	419.701712	871.077216	-58.338096	405.074465	785.539768	-76.577422	350.491429	717.774025	-80.757030	431.473177	778.389490	-105.107607	278.884275	591.307924	-96.975630	214.528261	599.767195	-144.920446	462.822973	455.115340	-153.581224	390.205684	457.319899	-82.502928	108.547954	959.486994	-494.733440	169.009706	899.507756	-491.183993	201.418624	916.922965	-487.640963	192.462501	812.700293	-483.310637	250.434599	689.191382	-457.284620	274.950593	683.441839	-331.241825	42.809510	310.814804	-422.698055	-17.729642	282.182433	-382.498627	163.012143	180.670723	-452.773767	188.652072	580.812450	-473.414498	171.830244	498.231727	-455.296928	114.391364	431.845882	-447.555694	201.598795	488.370390	-433.830913	263.476480	179.034554	-388.081606	-215.767166	951.412137	-257.664050	-18.096505	81.207850	-460.838640	-18.090986	81.402987	-62.104185	
1004	5.0200	475.598555	1392.153775	-64.260200	516.350091	1367.091693	-339.719392	427.393262	1476.128612	-205.719555	451.043266	1294.366105	-199.121885	578.573391	1155.481107	35.988283	775.783937	942.079235	-65.498337	657.947339	1212.064185	-555.717022	788.884704	923.320105	-468.455653	-111.458475	1211.845017	-291.840263	123.338910	1229.599735	-467.231479	62.418368	1255.587326	-67.596361	155.081840	1165.537198	-433.146087	98.955427	1196.812201	-107.442864	-86.746957	1294.652778	-246.635649	-70.889041	1282.731692	-333.521443	51.331514	1134.427441	-44.047122	25.770107	1082.185911	-478.129918	188.208809	1088.414858	-41.308549	277.513919	1088.646151	-46.148479	353.773234	1045.247352	-51.938448	285.905428	1122.433738	-59.652844	464.100909	1012.234152	-63.970682	476.841092	995.232222	-200.347540	419.175831	862.968954	-58.316723	405.452819	777.218744	-76.434628	351.774883	708.688691	-80.056264	431.642274	770.312108	-105.190204	281.604901	581.197816	-95.913365	215.838250	586.812326	-143.319844	470.508527	453.931379	-153.641701	398.378257	452.233983	-81.725661	109.970013	961.632968	-495.082215	171.694032	902.966630	-491.643145	203.667010	921.118032	-488.103922	197.070513	816.730323	-484.441174	256.438034	693.842369	-457.956673	281.444270	688.247084	-332.181880	39.187748	320.826566	-423.294153	-22.051569	294.020924	-382.741318	155.495914	186.776757	-452.465145	191.503053	586.692406	-473.993614	172.659398	504.871408	-455.955998	113.742107	439.601378	-448.051809	202.209327	494.145165	-434.132284	255.765313	181.701063	-387.861780	-215.744034	951.388765	-257.679865	-18.068462	81.149012	-460.881779	-18.058593	81.380692	-62.089640	
1005	5.0250	476.046679	1389.745153	-64.583573	517.609616	1363.160943	-336.625092	428.398054	1474.007010	-204.868507	449.731131	1292.255029	-198.057259	577.883294	1153.621893	35.827869	775.517617	941.509645	-65.381339	662.995940	1213.099912	-551.444756	789.573991	923.085217	-467.605887	-111.822367	1213.757084	-291.577857	122.250805	1230.999640	-467.916100	63.561225	1256.283641	-66.286752	153.873486	1165.719169	-434.561051	98.425396	1196.238547	-108.277985	-86.412257	1296.720734	-246.200788	-71.296896	1284.684826	-333.210345	50.474286	1134.029781	-44.856838	24.861582	1083.341313	-478.882049	187.027626	1086.068795	-42.094895	276.500326	1084.982206	-47.177836	352.076336	1040.370132	-52.904276	285.302306	1118.560298	-60.825433	462.045732	1004.852539	-65.621600	473.866477	986.640643	-201.262929	418.402348	853.740448	-58.296846	405.487328	767.742033	-76.442070	352.701207	698.692912	-79.436888	431.370619	761.245858	-105.848945	284.053442	570.224356	-95.076896	216.951297	572.842175	-141.400044	477.457409	452.174415	-153.694634	405.944050	446.446444	-81.520964	111.570219	963.834811	-495.356380	174.590266	906.511452	-491.876785	206.091653	925.401323	-488.353271	201.816807	820.812662	-485.280001	262.623354	698.617506	-458.387867	287.665895	693.538257	-332.908671	35.990579	330.903391	-423.984520	-25.924346	305.976573	-383.120905	148.462868	193.330989	-452.040483	194.571836	592.784214	-474.504664	173.827102	511.449423	-456.295310	113.365613	447.584220	-448.439257	203.022473	500.151372	-434.394503	248.323949	185.052879	-387.353638	-215.711094	951.368121	-257.735227	-18.049318	81.167156	-460.896233	-18.057419	81.385574	-62.094334	
1006	5.0300	476.918136	1387.410812	-64.683571	518.876897	1359.345064	-333.701442	429.302612	1472.002340	-203.952308	448.616349	1290.210591	-197.236215	577.359664	1151.491701	35.878326	775.234563	940.928828	-65.383030	667.298249	1213.763027	-546.878817	789.814003	922.449873	-466.397560	-112.071704	1215.277904	-291.250378	120.949150	1232.167818	-468.268365	63.601918	1255.985082	-66.211377	152.511128	1165.841962	-436.003022	98.083844	1195.062014	-108.146415	-86.119630	1298.410109	-245.468717	-71.644489	1286.364799	-332.753408	49.850644	1133.324404	-45.728865	24.146500	1084.382785	-479.542041	186.200069	1083.313298	-42.712786	275.621638	1080.716953	-48.170017	350.623506	1035.073540	-53.647262	284.824450	1114.128847	-61.971694	459.393564	996.953548	-67.061908	470.926814	977.134259	-202.198277	417.390455	843.525196	-58.223213	405.206161	757.472399	-76.625129	353.267723	687.695967	-78.921841	430.670334	751.269373	-106.443760	286.079973	558.387727	-94.294257	217.765692	558.310461	-139.971102	483.767318	449.886509	-153.404421	412.579791	440.098051	-80.845323	113.401961	966.056110	-495.548836	177.543103	910.082181	-491.965498	208.611580	929.532351	-488.271861	206.651461	824.912823	-485.741898	268.884888	703.649886	-458.807359	294.044855	698.300525	-333.199894	33.294254	341.131335	-424.710482	-29.376290	317.989260	-383.491398	142.014605	200.278712	-451.599479	197.844990	598.937226	-474.882350	175.175462	518.216798	-456.523665	113.258362	455.716315	-448.743607	204.140773	506.173120	-434.414865	241.249659	189.066981	-386.671839	-215.673763	951.342353	-257.789622	-18.033142	81.140192	-460.901026	-18.047189	81.343923	-62.114064	
